<svg width="60" height="60" viewBox="0 0 60 60" xmlns="http://www.w3.org/2000/svg">
  <defs>
    <linearGradient id="alertGradient" x1="0%" y1="0%" x2="100%" y2="100%">
      <stop offset="0%" style="stop-color:#ff4444;stop-opacity:1" />
      <stop offset="100%" style="stop-color:#cc0000;stop-opacity:1" />
    </linearGradient>
  </defs>
  
  <!-- Background circle -->
  <circle cx="30" cy="30" r="28" fill="url(#alertGradient)" stroke="#aa0000" stroke-width="2"/>
  
  <!-- Warning triangle -->
  <path d="M30 8 L22 24 L38 24 Z" fill="#ffffff" stroke="#cc0000" stroke-width="1"/>
  
  <!-- Exclamation mark -->
  <rect x="28.5" y="12" width="3" height="8" fill="#cc0000" rx="1"/>
  <circle cx="30" cy="22" r="1.5" fill="#cc0000"/>
  
  <!-- Bottom alert waves -->
  <path d="M10 35 Q20 30 30 35 Q40 40 50 35" stroke="#ffffff" stroke-width="2" fill="none" opacity="0.8"/>
  <path d="M12 40 Q22 35 30 40 Q38 45 48 40" stroke="#ffffff" stroke-width="1.5" fill="none" opacity="0.6"/>
  <path d="M14 45 Q24 40 30 45 Q36 50 46 45" stroke="#ffffff" stroke-width="1" fill="none" opacity="0.4"/>
  
  <!-- Star of David (small, subtle) -->
  <g transform="translate(30, 48) scale(0.3)" opacity="0.7">
    <path d="M0,-8 L7,4 L-7,4 Z" fill="#ffffff"/>
    <path d="M0,8 L-7,-4 L7,-4 Z" fill="#ffffff"/>
  </g>
</svg> 